<svg viewBox="-265 -580 1475 1475" fill="none" xmlns="http://www.w3.org/2000/svg">
  <path d="M455.625,359.211l2.814,1.071c23.945,9.269 46.869,23.285 69.1,36.795c8.806,5.345 17.74,10.115 26.948,14.53c2.263,1.085 4.518,2.191 6.772,3.297c10.362,5.036 20.837,9.19 31.601,13.03l3.395,1.254c76.445,28.243 161.655,34.898 241.334,24.907c4.245,-0.531 8.492,-1.017 12.744,-1.49c47.286,-5.444 93.154,-18.302 138.277,-34.693c25.448,-9.245 51.087,-17.807 77.345,-23.666l2.901,-0.668c26.712,-5.962 62.273,-9.207 87.384,4.71l0,2.695c-15.674,5.447 -32.117,6.479 -48.429,7.124c-22.053,0.904 -43.722,5.109 -65.256,10.394l-3.947,0.967c-7.651,1.954 -15.023,4.405 -22.441,7.262c-3.703,1.401 -7.435,2.515 -11.231,3.561c-6.701,1.91 -13.245,4.195 -19.806,6.64c-32.136,11.928 -65.313,20.273 -98.543,27.385l-3.047,0.662c-58.897,12.591 -124.036,15.03 -183.543,7.423l-4.319,-0.526c-68.687,-12.05 -99.208,-22.381 -99.208,-22.381c0,0 -6.564,-2.159 -9.857,-3.201c-6.739,-2.176 -13.289,-4.503 -19.754,-7.574c-2.02,-0.945 -4.064,-1.829 -6.122,-2.664c-17.825,-7.239 -34.836,-17.004 -51.542,-26.987c-54.799,-33.12 -92.219,-44.765 -115.683,-36.857c-12.494,4.211 -24.48,15.023 -31.144,28.236c-8.016,18.52 -9.041,38.154 -3.437,57.785c7.298,21.688 18.934,40.6 36.504,53.248l-2.379,-3.852c-13.38,-21.889 -20.706,-40.605 -20.945,-67.397l-0.05,-3.981c0.077,-13.101 3.41,-22.831 11.336,-32.57c8.851,-9.624 18.965,-12.291 31.072,-12.549c12.162,0.329 23.933,1.693 35.137,7.158l2.874,1.127c9.412,3.775 18.033,9.534 23.61,19.086l0,2.695c-6.598,-0.737 -12.522,-2.158 -18.809,-4.549c-16.904,-6.082 -38.341,-13.407 -55.601,-4.884c-6.607,4.463 -9.873,10.838 -12.263,18.865c-0.92,18.668 -0.92,18.668 3.611,36.383l1.058,2.937c13.71,37.117 41.037,59.268 72.989,74.545c6.108,2.719 12.099,4.959 18.495,6.654c6.165,1.786 10.581,4.583 14.596,10.19c1.278,3.706 1.278,3.706 1.204,6.737c-4.639,5.192 -10.604,4.355 -16.853,4.379c-8.953,-0.024 -16.736,-1.22 -25.28,-4.379l-2.569,-0.921c-42.073,-15.201 -87.016,-39.313 -108.181,-85.32c-6.915,-16.385 -9.859,-29.864 -9.932,-48.089l-0.076,-4.578c-0.09,-21.977 6.935,-40.34 20.527,-56.277c3.875,-4.128 7.878,-7.71 12.353,-10.985l2.092,-1.542c24.165,-16.604 56.888,-11.177 82.175,-1.154Z" fill="#F5C00C" stroke="#F5C00C" stroke-width="50" stroke-linejoin="round"/>
  <path d="M1161.056,406.374c0.457,3.621 0.457,3.621 0,8.085c-3.66,4.518 -6.789,6.782 -11.942,8.607c-0.963,0.342 -1.914,0.686 -2.901,1.039c-1.059,0.375 -2.119,0.749 -3.214,1.135c-19.405,6.93 -38.293,14.149 -56.579,24.255c-1.011,0.551 -2.01,1.104 -3.058,1.672c-32.331,17.872 -61.24,41.27 -89.495,66.158c-6.81,5.988 -13.658,11.923 -20.531,17.821c-4.506,3.871 -9.001,7.759 -13.477,11.676c-13.459,11.776 -27.044,23.346 -40.769,34.73c-0.899,0.748 -1.798,1.497 -2.725,2.268c-40.361,33.49 -83.391,61.489 -130.857,80.269c-2.48,0.965 -2.48,0.965 -4.855,2.357c18.59,10.229 36.826,19.377 56.847,25.514c6.467,2.043 12.859,4.338 19.26,6.628c5.06,1.807 10.123,3.545 15.232,5.166c4.078,1.381 7.709,2.634 10.985,5.812c0.141,3.506 0.141,3.506 0,6.738c-9.208,2.396 -18.262,3.424 -27.688,4.043c-1.186,0.08 -1.186,0.08 -2.396,0.16c-5.438,0.36 -10.876,0.69 -16.315,1.011c-2.978,0.178 -5.954,0.367 -8.931,0.557c-70.669,4.444 -141.665,3.289 -212.367,0.462c-1.089,-0.043 -2.178,-0.085 -3.3,-0.129c-6.272,-0.247 -12.542,-0.505 -18.813,-0.784c-1.886,-0.084 -3.773,-0.164 -5.659,-0.243c-32.744,-1.372 -32.744,-1.372 -40.394,-6.424c0.15,-2.358 0.15,-2.358 1.204,-5.39c5.475,-4.751 10.963,-7.131 17.53,-9.433c0.963,-0.349 1.925,-0.697 2.917,-1.055c5.356,-1.93 10.733,-3.776 16.119,-5.599c19.947,-6.855 38.666,-15.218 57.331,-25.686c-1.489,-0.539 -2.979,-1.077 -4.514,-1.632c-26.855,-10.039 -51.915,-23.024 -74.937,-41.489c-0.677,-0.536 -1.353,-1.074 -2.051,-1.628c-9.686,-7.783 -18.239,-16.677 -26.69,-26.081c-0.945,-1.05 -1.889,-2.099 -2.863,-3.181c-13.634,-15.451 -37.515,-43.483 -38.335,-66.778c0.014,-1.205 0.029,-2.408 0.043,-3.649c0.011,-1.214 0.022,-2.428 0.033,-3.679c0.013,-0.926 0.028,-1.851 0.042,-2.806c6.005,1.23 8.558,5.494 12.038,10.78c2.53,4.146 4.985,8.349 7.449,12.545c8.01,13.565 17.503,25.521 27.461,37.313c1.471,1.756 1.471,1.756 2.972,3.548c7.601,8.811 15.866,16.26 24.715,23.402c0.977,0.802 0.977,0.802 1.975,1.62c9.946,8.077 20.488,14.718 31.356,21.12c1.242,0.738 2.486,1.476 3.767,2.236c8.292,4.786 16.593,8.34 25.5,11.408c1.758,0.667 3.514,1.339 5.267,2.021c1.854,0.679 3.71,1.353 5.568,2.021c1.164,0.431 2.328,0.861 3.527,1.306c23.561,8.192 47.813,8.933 72.313,9.474c-9.214,8.061 -21.571,7.662 -32.197,12.005c-10.862,4.439 -21.885,10.047 -32.978,14.63c-16.904,6.983 -46.174,21.33 -68.447,27.266l260.022,0c-5.562,-1.334 -11.123,-2.668 -16.853,-4.043c-1.986,-0.889 -3.973,-1.779 -6.019,-2.695c-2.202,-0.749 -4.41,-1.478 -6.621,-2.19c-55.483,-19.093 -61.524,-28.357 -71.626,-38.236c-1.209,-1.182 -1.388,-4.487 0,-5.39c4.31,-2.803 16.672,-9.189 25.857,-11.43c23.231,-5.777 45.861,-16.322 66.805,-28.899c2.77,-1.641 5.568,-3.215 8.369,-4.786c15.169,-8.586 29.367,-18.322 43.426,-28.999c0.849,-0.639 1.696,-1.279 2.57,-1.938c16.131,-12.167 32.219,-24.614 47.284,-38.399c3.98,-3.559 8.057,-6.959 12.142,-10.364c7.018,-5.852 13.952,-11.812 20.84,-17.855c10.281,-9 20.752,-17.686 31.293,-26.299c2.412,-1.98 4.812,-3.977 7.206,-5.983c40.631,-33.964 83.107,-60.415 132.897,-72.74c1.77,-0.442 1.77,-0.442 3.575,-0.893c5.646,-1.356 10.846,-2.436 16.661,-2.054Z" fill="#B1311A" stroke="#B1311A" stroke-width="50" stroke-linejoin="round"/>
  <path d="M1135.402,105.793c1.457,0.019 1.457,0.019 2.949,0.038c1.108,0.023 1.108,0.023 2.239,0.047c-1.854,5.546 -5.032,7.902 -9.257,11.285c-1.312,1.075 -2.624,2.153 -3.924,3.231c-1.216,0.99 -2.42,1.981 -3.672,3.001c-7.885,6.513 -13.772,14.53 -15.649,25.603c-1.457,15.042 1.866,29.372 9.931,41.605c1.469,1.895 2.973,3.749 4.514,5.559c0.722,0.846 1.445,1.691 2.191,2.563c6.669,7.149 14.349,12.586 22.042,18.236c20.585,15.157 43.698,33.618 49.91,61.963c2.203,15.61 0.313,29.539 -8.126,42.516c-4.382,5.704 -7.765,9.779 -14.253,12.169c-1.192,-3.514 -1.348,-4.979 -0.084,-8.532c0.542,-1.104 1.095,-2.206 1.661,-3.343c5.706,-12.23 8.198,-25.405 4.683,-39.029c-8.523,-20.825 -26.725,-33.367 -43.181,-45.487c-20.296,-14.983 -39.726,-32.379 -46.142,-59.92c-0.361,-4.638 -0.385,-9.243 -0.373,-13.897c-0.024,-1.211 -0.036,-2.423 -0.06,-3.671c-0.012,-15.099 4.538,-26.843 13.675,-37.907c8.234,-8.783 19.273,-16.217 30.926,-16.029Z" fill="#316DBC" stroke="#316DBC" stroke-width="50" stroke-linejoin="round"/>
  <path d="M1067.159,206.942l4.815,0c2.251,4.781 4.069,9.488 5.718,14.569c6.922,19.443 22.62,31.527 38.293,41.521c17.323,11.148 34.718,22.729 41.459,44.973c1.685,13.097 -0.084,25.992 -7.078,36.803c-5.477,7.504 -11.749,15.068 -19.405,19.792c-3.31,0.226 -3.31,0.226 -6.019,0c0.638,-5.979 2.588,-9.278 5.875,-13.98c7.969,-11.992 9.763,-20.609 7.969,-35.457c-4.322,-10.693 -13.76,-15.676 -23.017,-19.959c-2.143,-1.036 -4.274,-2.075 -6.404,-3.115c-1.035,-0.501 -2.071,-1.001 -3.142,-1.517c-12.243,-5.937 -22.451,-12.172 -31.841,-22.991c-0.698,-0.759 -1.408,-1.519 -2.131,-2.3c-8.704,-10.131 -11.636,-22.215 -11.713,-35.936c-0.007,-1.025 -0.016,-2.051 -0.023,-3.107c0.156,-7.735 1.6,-13.65 6.644,-19.295Z" fill="#316DBC" stroke="#316DBC" stroke-width="50" stroke-linejoin="round"/>
</svg>
